<?xml version="1.0" encoding="UTF-8" standalone="no"?>
<svg
   xmlns:dc="http://purl.org/dc/elements/1.1/"
   xmlns:cc="http://creativecommons.org/ns#"
   xmlns:rdf="http://www.w3.org/1999/02/22-rdf-syntax-ns#"
   xmlns:svg="http://www.w3.org/2000/svg"
   xmlns="http://www.w3.org/2000/svg"
   viewBox="0 0 1122.52 793.70667"
   height="793.70667"
   width="1122.52"
   xml:space="preserve"
   id="svg2"
   version="1.1"><metadata
     id="metadata8"><rdf:RDF><cc:Work
         rdf:about=""><dc:format>image/svg+xml</dc:format><dc:type
           rdf:resource="http://purl.org/dc/dcmitype/StillImage" /></cc:Work></rdf:RDF></metadata><defs
     id="defs6"><clipPath
       id="clipPath18"
       clipPathUnits="userSpaceOnUse"><path
         id="path16"
         d="M 0,595.28 H 841.89 V 0 H 0 Z" /></clipPath></defs><g
     transform="matrix(1.3333333,0,0,-1.3333333,0,793.70667)"
     id="g10"><g
       id="g12"><g
         clip-path="url(#clipPath18)"
         id="g14"><g
           transform="translate(198.2285,303.9473)"
           id="g20"><path
             id="path22"
             style="fill:#0063be;fill-opacity:1;fill-rule:nonzero;stroke:none"
             d="m 0,0 v -50.288 h 27.591 c 10.866,0 19.067,2.074 24.607,6.244 5.537,4.158 8.306,10.732 8.306,19.725 0,8.242 -2.818,14.369 -8.472,18.346 C 46.389,-1.996 37.806,0 26.283,0 Z m 0,21.081 h 24.989 c 10.861,0 18.788,1.713 23.78,5.158 5.005,3.436 7.505,9.293 7.505,17.535 0,7.466 -2.706,12.846 -8.091,16.192 -5.412,3.316 -13.962,4.992 -25.695,4.992 H 0 Z m -25.959,65.603 h 47.142 c 21.881,0 37.674,-3.185 47.424,-9.565 9.73,-6.368 14.605,-16.438 14.605,-30.193 0,-9.275 -2.392,-16.98 -7.17,-23.144 -4.779,-6.15 -11.668,-10.02 -20.64,-11.612 v -1.085 c 11.159,-2.1 19.35,-6.258 24.604,-12.441 5.243,-6.183 7.877,-14.575 7.877,-25.149 0,-14.256 -4.981,-25.433 -14.938,-33.506 -9.961,-8.072 -23.81,-12.111 -41.552,-12.111 h -57.352 z" /></g><g
           transform="translate(368.5957,325.0283)"
           id="g24"><path
             id="path26"
             style="fill:#3d3d3c;fill-opacity:1;fill-rule:nonzero;stroke:none"
             d="M 0,0 H 51.451 V -87.393 C 46.346,-92.5 45.39,-93.137 36.605,-93.137 H 7.139 c -24.039,0 -34.983,4.752 -48.382,19.055 -13.399,14.289 -20.101,34.344 -20.101,60.125 0,16.505 3.317,30.973 9.942,43.395 6.633,12.407 16.162,21.905 28.615,28.449 12.472,6.556 24.257,7.035 40.977,7.035 16.958,0 14.136,0.513 33.405,0.513 V 43.894 c -14.293,0 -18.532,-0.111 -31.799,-0.111 -19.324,0 -32.848,-3.183 -43.724,-14.71 -10.861,-11.501 -14.154,-25.037 -14.154,-45.452 0,-21.432 3.005,-33.469 12.793,-45.142 5.556,-6.625 17.002,-10.252 37.269,-10.252 h 21.007 v 50.692 l -32.987,0 z" /></g><g
           transform="translate(577.9355,311.1689)"
           id="g28"><path
             id="path30"
             style="fill:#3d3d3c;fill-opacity:1;fill-rule:nonzero;stroke:none"
             d="m 0,0 c 0,-21.486 5.009,-37.43 13.742,-48.869 2.881,-3.777 10.095,-12.125 21.368,-12.125 9.491,0 16.239,6.125 21.172,12.066 9.103,10.965 13.464,27.383 13.464,48.928 0,21.324 -4.64,37.38 -13.416,48.523 C 48.076,59.012 42.861,60.357 35.336,60.357 27.317,60.357 20.051,57.471 13.742,48.436 5.492,36.627 0,21.176 0,0 m 92.255,0 c 0,-25.385 -5.909,-45.941 -17.146,-61.754 -6.782,-9.539 -19.181,-17.523 -39.999,-17.523 -17.999,0 -29.344,5.677 -40.004,18.064 -12.482,14.479 -17.452,35.395 -17.452,61.421 0,25.817 7.186,49.5 18.215,61.667 6.216,6.85 17.743,17.242 39.467,17.242 22.81,0 32.895,-11.008 39.415,-18.648 C 87.289,45.751 92.255,25.451 92.255,0" /></g><path
           id="path32"
           style="fill:#3d3d3c;fill-opacity:1;fill-rule:nonzero;stroke:none"
           d="m 530.066,303.947 h -84.289 v 21.364 h 84.289 z" /><path
           id="path34"
           style="fill:#3d3d3c;fill-opacity:1;fill-rule:nonzero;stroke:none"
           d="m 530.066,368.922 h -84.289 v 21.364 h 84.289 z" /><path
           id="path36"
           style="fill:#3d3d3c;fill-opacity:1;fill-rule:nonzero;stroke:none"
           d="m 530.066,231.892 h -84.289 v 21.363 h 84.289 z" /><g
           transform="translate(310.4922,400.1426)"
           id="g38"><path
             id="path40"
             style="fill:#0063be;fill-opacity:1;fill-rule:nonzero;stroke:none"
             d="m 0,0 c 0,8.913 -7.194,16.132 -16.117,16.132 -8.894,0 -16.125,-7.219 -16.125,-16.132 0,-5.872 3.164,-10.993 7.861,-13.806 v -0.025 c 10.701,-6.418 12.798,-17.606 12.798,-17.606 C 1.77,-24.198 0,0 0,0" /></g><g
           transform="translate(175.2178,190.5068)"
           id="g42"><path
             id="path44"
             style="fill:#3d3d3c;fill-opacity:1;fill-rule:nonzero;stroke:none"
             d="m 0,0 c 0,-2.92 0.584,-5.139 1.771,-6.646 1.176,-1.512 2.926,-2.27 5.244,-2.27 2.302,0 4.043,0.748 5.214,2.246 1.18,1.492 1.763,3.715 1.763,6.67 0,2.92 -0.579,5.117 -1.741,6.621 C 11.087,8.127 9.357,8.881 7.046,8.881 4.722,8.881 2.962,8.127 1.779,6.621 0.584,5.117 0,2.92 0,0 m 18.123,0 c 0,-3.854 -0.968,-6.867 -2.909,-9.014 -1.928,-2.134 -4.664,-3.207 -8.199,-3.207 -3.593,0 -6.337,1.061 -8.262,3.184 -1.919,2.131 -2.88,5.156 -2.88,9.068 0,3.922 0.969,6.936 2.905,9.032 1.924,2.101 4.685,3.15 8.268,3.15 3.531,0 6.25,-1.065 8.183,-3.197 C 17.163,6.881 18.123,3.875 18.123,0" /></g><g
           transform="translate(202.3105,190.7607)"
           id="g46"><path
             id="path48"
             style="fill:#3d3d3c;fill-opacity:1;fill-rule:nonzero;stroke:none"
             d="M 0,0 H 2.068 C 4.059,0 5.516,0.334 6.45,1.037 7.382,1.717 7.851,2.813 7.851,4.275 7.851,5.639 7.433,6.662 6.598,7.328 5.765,7.998 4.461,8.342 2.697,8.342 H 0 Z M 11.839,4.402 C 11.839,1.924 11.037,0.025 9.405,-1.297 7.783,-2.617 5.468,-3.271 2.473,-3.271 H 0 v -8.885 h -3.879 v 23.744 h 6.834 c 2.973,0 5.19,-0.611 6.673,-1.828 1.476,-1.209 2.211,-2.992 2.211,-5.358" /></g><g
           transform="translate(232.3164,178.6045)"
           id="g50"><path
             id="path52"
             style="fill:#3d3d3c;fill-opacity:1;fill-rule:nonzero;stroke:none"
             d="M 0,0 H -13.426 V 23.744 H 0 v -3.283 h -9.537 v -6.459 h 8.941 V 10.748 H -9.537 V 3.297 l 9.537,0 z" /></g><g
           transform="translate(257.2197,178.6045)"
           id="g54"><path
             id="path56"
             style="fill:#3d3d3c;fill-opacity:1;fill-rule:nonzero;stroke:none"
             d="m 0,0 h -4.747 l -11.675,18.912 h -0.139 l 0.089,-1.049 c 0.153,-2.019 0.219,-3.857 0.219,-5.523 V 0 h -3.522 v 23.744 h 4.715 L -3.418,4.924 h 0.094 c -0.017,0.248 -0.062,1.15 -0.121,2.719 -0.077,1.566 -0.102,2.779 -0.102,3.662 V 23.744 H 0 Z" /></g><g
           transform="translate(281.8438,191.4814)"
           id="g58"><path
             id="path60"
             style="fill:#3d3d3c;fill-opacity:1;fill-rule:nonzero;stroke:none"
             d="m 0,0 h 8.728 v -11.928 c -1.423,-0.455 -2.794,-0.787 -4.113,-0.984 -1.31,-0.188 -2.729,-0.283 -4.261,-0.283 -3.589,0 -6.366,1.06 -8.316,3.183 -1.944,2.131 -2.919,5.133 -2.919,9.006 0,3.824 1.098,6.815 3.298,8.971 2.199,2.162 5.225,3.25 9.072,3.25 2.481,0 4.828,-0.496 7.049,-1.447 L 7.175,6.537 C 5.243,7.428 3.318,7.865 1.39,7.865 c -2.527,0 -4.526,-0.787 -6.001,-2.379 -1.475,-1.591 -2.202,-3.765 -2.202,-6.523 0,-2.904 0.654,-5.115 1.981,-6.619 1.326,-1.506 3.231,-2.258 5.718,-2.258 1.266,0 2.6,0.146 4.026,0.467 V -3.33 L 0,-3.33 Z" /></g><path
           id="path62"
           style="fill:#3d3d3c;fill-opacity:1;fill-rule:nonzero;stroke:none"
           d="m 296.28,202.349 h 3.876 v -23.744 h -3.876 z" /><g
           transform="translate(320.1074,185.0439)"
           id="g64"><path
             id="path66"
             style="fill:#3d3d3c;fill-opacity:1;fill-rule:nonzero;stroke:none"
             d="m 0,0 c 0,-2.107 -0.758,-3.762 -2.281,-4.961 -1.534,-1.207 -3.638,-1.797 -6.323,-1.797 -2.686,0 -4.875,0.414 -6.59,1.248 v 3.668 c 1.081,-0.506 2.234,-0.906 3.451,-1.205 1.213,-0.295 2.353,-0.43 3.406,-0.43 1.535,0 2.666,0.282 3.396,0.862 0.728,0.594 1.092,1.383 1.092,2.357 0,0.893 -0.333,1.649 -1.001,2.26 -0.671,0.623 -2.056,1.344 -4.157,2.195 -2.166,0.877 -3.69,1.877 -4.577,3.004 -0.886,1.133 -1.333,2.477 -1.333,4.057 0,1.978 0.705,3.539 2.109,4.676 1.41,1.14 3.291,1.718 5.666,1.718 2.278,0 4.535,-0.509 6.794,-1.507 l -1.241,-3.17 c -2.11,0.89 -3.992,1.328 -5.643,1.328 -1.261,0 -2.211,-0.262 -2.857,-0.813 -0.658,-0.543 -0.983,-1.271 -0.983,-2.174 0,-0.609 0.129,-1.132 0.392,-1.578 0.262,-0.439 0.688,-0.851 1.281,-1.232 C -8.81,8.111 -7.736,7.59 -6.181,6.951 -4.434,6.234 -3.168,5.557 -2.349,4.926 -1.538,4.309 -0.942,3.594 -0.563,2.797 -0.182,2.014 0,1.074 0,0" /></g><g
           transform="translate(337.5361,197.2275)"
           id="g68"><path
             id="path70"
             style="fill:#3d3d3c;fill-opacity:1;fill-rule:nonzero;stroke:none"
             d="m 0,0 c 0,-0.68 0.176,-1.32 0.536,-1.926 0.37,-0.611 0.878,-1.258 1.516,-1.939 1.231,0.693 2.085,1.338 2.576,1.939 0.5,0.606 0.74,1.281 0.74,2.026 0,0.703 -0.234,1.263 -0.704,1.677 C 4.189,2.209 3.57,2.424 2.789,2.424 1.931,2.424 1.254,2.195 0.752,1.764 0.246,1.326 0,0.738 0,0 m 2.41,-15.66 c 1.99,0 3.687,0.572 5.093,1.74 l -6.221,6.113 c -1.154,-0.74 -1.944,-1.435 -2.375,-2.08 -0.431,-0.642 -0.642,-1.371 -0.642,-2.191 0,-1.067 0.371,-1.924 1.131,-2.586 0.745,-0.662 1.75,-0.996 3.014,-0.996 m -8.173,3.318 c 0,1.42 0.344,2.666 1.036,3.713 0.691,1.065 1.944,2.113 3.751,3.135 -1.028,1.215 -1.732,2.221 -2.109,3.049 -0.371,0.826 -0.553,1.685 -0.553,2.58 0,1.642 0.582,2.935 1.761,3.886 C -0.703,4.973 0.87,5.469 2.858,5.469 4.77,5.469 6.27,4.996 7.367,4.07 8.468,3.141 9.011,1.898 9.011,0.326 9.011,-0.906 8.645,-2.031 7.908,-3.037 7.181,-4.035 5.96,-5.049 4.252,-6.053 l 5.622,-5.424 c 0.868,1.159 1.601,2.862 2.19,5.104 h 3.928 c -0.76,-3.08 -1.972,-5.588 -3.639,-7.523 l 4.888,-4.727 h -4.923 l -2.421,2.353 c -1.097,-0.886 -2.276,-1.552 -3.522,-2.003 -1.254,-0.45 -2.637,-0.668 -4.156,-0.668 -2.492,0 -4.439,0.589 -5.857,1.761 -1.422,1.184 -2.125,2.797 -2.125,4.838" /></g><g
           transform="translate(388.5029,178.6045)"
           id="g72"><path
             id="path74"
             style="fill:#3d3d3c;fill-opacity:1;fill-rule:nonzero;stroke:none"
             d="m 0,0 h -4.219 l -4.03,14.154 c -0.174,0.619 -0.389,1.518 -0.648,2.67 -0.266,1.17 -0.419,1.983 -0.469,2.434 -0.117,-0.694 -0.293,-1.584 -0.533,-2.699 -0.245,-1.108 -0.448,-1.922 -0.609,-2.465 L -14.438,0 h -4.22 l -3.072,11.889 -3.119,11.855 h 3.962 L -17.501,9.91 c 0.547,-2.232 0.916,-4.181 1.147,-5.887 0.12,0.924 0.295,1.95 0.541,3.086 0.234,1.133 0.45,2.061 0.638,2.764 l 3.871,13.871 h 3.849 L -3.5,9.811 c 0.386,-1.295 0.786,-3.215 1.203,-5.788 0.163,1.553 0.556,3.516 1.175,5.911 l 3.374,13.81 h 3.931 z" /></g><g
           transform="translate(409.377,188.5381)"
           id="g76"><path
             id="path78"
             style="fill:#3d3d3c;fill-opacity:1;fill-rule:nonzero;stroke:none"
             d="m 0,0 -2.223,6.467 c -0.16,0.437 -0.384,1.117 -0.673,2.049 -0.287,0.925 -0.489,1.607 -0.598,2.048 C -3.777,9.23 -4.209,7.775 -4.77,6.186 L -6.916,0 Z M 3.396,-9.934 1.02,-3.338 h -9.063 l -2.329,-6.596 h -4.089 L -5.58,13.9 h 4.223 L 7.52,-9.934 Z" /></g><g
           transform="translate(428.2344,178.6045)"
           id="g80"><path
             id="path82"
             style="fill:#3d3d3c;fill-opacity:1;fill-rule:nonzero;stroke:none"
             d="m 0,0 h -3.883 v 20.4 h -6.984 v 3.344 H 6.978 V 20.4 H 0 Z" /></g><g
           transform="translate(452.2666,178.6045)"
           id="g84"><path
             id="path86"
             style="fill:#3d3d3c;fill-opacity:1;fill-rule:nonzero;stroke:none"
             d="M 0,0 H -13.432 V 23.744 H 0 v -3.283 h -9.544 v -6.459 h 8.949 V 10.748 H -9.544 V 3.297 l 9.544,0 z" /></g><g
           transform="translate(461.2871,191.3018)"
           id="g88"><path
             id="path90"
             style="fill:#3d3d3c;fill-opacity:1;fill-rule:nonzero;stroke:none"
             d="M 0,0 H 2.689 C 4.506,0 5.819,0.336 6.629,1.002 7.443,1.68 7.842,2.672 7.842,4 7.842,5.334 7.406,6.293 6.528,6.889 5.651,7.465 4.324,7.764 2.561,7.764 H 0 Z m 0,-3.221 v -9.476 h -3.877 v 23.744 h 6.706 c 3.058,0 5.323,-0.58 6.796,-1.729 1.477,-1.14 2.21,-2.877 2.21,-5.193 0,-2.949 -1.533,-5.063 -4.606,-6.32 L 13.93,-12.697 H 9.521 L 3.84,-3.221 Z" /></g><g
           transform="translate(500.9805,185.0439)"
           id="g92"><path
             id="path94"
             style="fill:#3d3d3c;fill-opacity:1;fill-rule:nonzero;stroke:none"
             d="m 0,0 c 0,-2.107 -0.762,-3.762 -2.281,-4.961 -1.54,-1.207 -3.639,-1.797 -6.323,-1.797 -2.679,0 -4.884,0.414 -6.595,1.248 v 3.668 c 1.088,-0.506 2.232,-0.906 3.451,-1.205 1.227,-0.295 2.352,-0.43 3.408,-0.43 1.533,0 2.668,0.282 3.407,0.862 0.729,0.594 1.093,1.383 1.093,2.357 0,0.893 -0.334,1.649 -1.016,2.26 -0.665,0.623 -2.055,1.344 -4.15,2.195 -2.168,0.877 -3.692,1.877 -4.578,3.004 -0.887,1.133 -1.338,2.477 -1.338,4.057 0,1.978 0.705,3.539 2.113,4.676 1.407,1.14 3.299,1.718 5.663,1.718 2.28,0 4.542,-0.509 6.796,-1.507 l -1.242,-3.17 c -2.103,0.89 -3.992,1.328 -5.646,1.328 -1.26,0 -2.204,-0.262 -2.862,-0.813 -0.641,-0.543 -0.963,-1.271 -0.963,-2.174 0,-0.609 0.125,-1.132 0.383,-1.578 0.265,-0.439 0.69,-0.851 1.284,-1.232 0.6,-0.395 1.674,-0.916 3.212,-1.555 C -4.435,6.234 -3.159,5.557 -2.35,4.926 -1.544,4.309 -0.944,3.594 -0.566,2.797 -0.191,2.014 0,1.074 0,0" /></g><g
           transform="translate(508.5342,190.5068)"
           id="g96"><path
             id="path98"
             style="fill:#3d3d3c;fill-opacity:1;fill-rule:nonzero;stroke:none"
             d="m 0,0 c 0,-2.92 0.594,-5.139 1.769,-6.646 1.189,-1.512 2.928,-2.27 5.244,-2.27 2.301,0 4.05,0.748 5.219,2.246 1.17,1.492 1.759,3.715 1.759,6.67 0,2.92 -0.574,5.117 -1.734,6.621 -1.174,1.506 -2.904,2.26 -5.215,2.26 -2.326,0 -4.08,-0.754 -5.268,-2.26 C 0.6,5.117 0,2.92 0,0 m 18.124,0 c 0,-3.854 -0.973,-6.867 -2.9,-9.014 -1.932,-2.134 -4.674,-3.207 -8.211,-3.207 -3.581,0 -6.342,1.061 -8.258,3.184 -1.923,2.131 -2.883,5.156 -2.883,9.068 0,3.922 0.97,6.936 2.906,9.032 1.931,2.101 4.682,3.15 8.264,3.15 3.527,0 6.26,-1.065 8.187,-3.197 C 17.151,6.881 18.124,3.875 18.124,0" /></g><g
           transform="translate(531.7529,178.6045)"
           id="g100"><path
             id="path102"
             style="fill:#3d3d3c;fill-opacity:1;fill-rule:nonzero;stroke:none"
             d="M 0,0 V 23.744 H 3.882 V 3.332 H 13.934 V 0 Z" /></g><g
           transform="translate(568.377,202.3486)"
           id="g104"><path
             id="path106"
             style="fill:#3d3d3c;fill-opacity:1;fill-rule:nonzero;stroke:none"
             d="m 0,0 v -15.365 c 0,-1.752 -0.363,-3.281 -1.121,-4.604 -0.757,-1.316 -1.846,-2.324 -3.27,-3.033 -1.427,-0.713 -3.12,-1.061 -5.098,-1.061 -2.945,0 -5.24,0.774 -6.87,2.329 -1.639,1.566 -2.454,3.705 -2.454,6.431 V 0 h 3.897 v -15.025 c 0,-1.955 0.451,-3.401 1.361,-4.338 0.906,-0.924 2.311,-1.395 4.19,-1.395 3.662,0 5.488,1.924 5.488,5.764 l 0,14.994 z" /></g><g
           transform="translate(582.6572,178.6045)"
           id="g108"><path
             id="path110"
             style="fill:#3d3d3c;fill-opacity:1;fill-rule:nonzero;stroke:none"
             d="m 0,0 h -3.878 v 20.4 h -6.994 v 3.344 H 6.979 V 20.4 H 0 Z" /></g><path
           id="path112"
           style="fill:#3d3d3c;fill-opacity:1;fill-rule:nonzero;stroke:none"
           d="m 593.27,202.349 h 3.883 v -23.744 h -3.883 z" /><g
           transform="translate(606.3682,190.5068)"
           id="g114"><path
             id="path116"
             style="fill:#3d3d3c;fill-opacity:1;fill-rule:nonzero;stroke:none"
             d="m 0,0 c 0,-2.92 0.595,-5.139 1.774,-6.646 1.185,-1.512 2.93,-2.27 5.248,-2.27 2.302,0 4.051,0.748 5.216,2.246 1.169,1.492 1.759,3.715 1.759,6.67 0,2.92 -0.576,5.117 -1.74,6.621 -1.16,1.506 -2.9,2.26 -5.201,2.26 C 4.728,8.881 2.974,8.127 1.779,6.621 0.595,5.117 0,2.92 0,0 m 18.124,0 c 0,-3.854 -0.963,-6.867 -2.9,-9.014 -1.932,-2.134 -4.664,-3.207 -8.202,-3.207 -3.588,0 -6.332,1.061 -8.257,3.184 -1.928,2.131 -2.887,5.156 -2.887,9.068 0,3.922 0.964,6.936 2.9,9.032 1.938,2.101 4.694,3.15 8.278,3.15 3.529,0 6.256,-1.065 8.182,-3.197 C 17.161,6.881 18.124,3.875 18.124,0" /></g><g
           transform="translate(649.375,178.6045)"
           id="g118"><path
             id="path120"
             style="fill:#3d3d3c;fill-opacity:1;fill-rule:nonzero;stroke:none"
             d="m 0,0 h -4.766 l -11.666,18.912 h -0.131 l 0.074,-1.049 c 0.152,-2.019 0.234,-3.857 0.234,-5.523 V 0 h -3.527 v 23.744 h 4.711 L -3.434,4.924 h 0.102 c -0.024,0.248 -0.073,1.15 -0.131,2.719 -0.066,1.566 -0.1,2.779 -0.1,3.662 V 23.744 H 0 Z" /></g><g
           transform="translate(669.3271,185.0439)"
           id="g122"><path
             id="path124"
             style="fill:#3d3d3c;fill-opacity:1;fill-rule:nonzero;stroke:none"
             d="m 0,0 c 0,-2.107 -0.771,-3.762 -2.29,-4.961 -1.529,-1.207 -3.634,-1.797 -6.318,-1.797 -2.684,0 -4.879,0.414 -6.595,1.248 v 3.668 c 1.088,-0.506 2.233,-0.906 3.456,-1.205 1.217,-0.295 2.348,-0.43 3.402,-0.43 1.535,0 2.66,0.282 3.4,0.862 0.723,0.594 1.096,1.383 1.096,2.357 0,0.893 -0.335,1.649 -1.011,2.26 -0.675,0.623 -2.055,1.344 -4.161,2.195 -2.162,0.877 -3.684,1.877 -4.571,3.004 -0.887,1.133 -1.329,2.477 -1.329,4.057 0,1.978 0.706,3.539 2.109,4.676 1.411,1.14 3.298,1.718 5.666,1.718 2.273,0 4.54,-0.509 6.783,-1.507 l -1.232,-3.17 c -2.115,0.89 -3.988,1.328 -5.656,1.328 -1.252,0 -2.2,-0.262 -2.848,-0.813 -0.646,-0.543 -0.978,-1.271 -0.978,-2.174 0,-0.609 0.131,-1.132 0.393,-1.578 0.255,-0.439 0.687,-0.851 1.276,-1.232 0.599,-0.395 1.673,-0.916 3.221,-1.555 1.74,-0.717 3.014,-1.394 3.83,-2.025 C -1.543,4.309 -0.953,3.594 -0.574,2.797 -0.19,2.014 0,1.074 0,0" /></g></g></g></g></svg>