<?xml version="1.0" encoding="utf-8"?>
<!-- Generator: Adobe Illustrator 16.0.0, SVG Export Plug-In . SVG Version: 6.00 Build 0)  -->
<!DOCTYPE svg PUBLIC "-//W3C//DTD SVG 1.0//EN" "http://www.w3.org/TR/2001/REC-SVG-20010904/DTD/svg10.dtd">
<svg version="1.0" id="Bold" xmlns="http://www.w3.org/2000/svg" xmlns:xlink="http://www.w3.org/1999/xlink" x="0px" y="0px"
	 width="84px" height="100px" viewBox="0 0 84 100" enable-background="new 0 0 84 100" xml:space="preserve">
<g>
	<g>
		<g>
			<rect x="17.625" y="17.625" fill="#15B750" width="0.75" height="0.75"/>
		</g>
	</g>
	<g>
		<g>
			<rect x="33.625" y="17.625" fill="#15B750" width="0.75" height="0.75"/>
		</g>
	</g>
	<g>
		<g>
			<rect x="49.625" y="17.625" fill="#15B750" width="0.75" height="0.75"/>
		</g>
	</g>
	<g>
		<g>
			<rect x="65.625" y="17.625" fill="#15B750" width="0.75" height="0.75"/>
		</g>
	</g>
	<g>
		<g>
			<rect x="17.625" y="33.625" fill="#15B750" width="0.75" height="0.75"/>
		</g>
	</g>
	<g>
		<g>
			<rect x="33.625" y="33.625" fill="#15B750" width="0.75" height="0.75"/>
		</g>
	</g>
	<g>
		<g>
			<rect x="49.625" y="33.625" fill="#15B750" width="0.75" height="0.75"/>
		</g>
	</g>
	<g>
		<g>
			<rect x="65.625" y="33.625" fill="#15B750" width="0.75" height="0.75"/>
		</g>
	</g>
	<g>
		<g>
			<rect x="17.625" y="49.625" fill="#15B750" width="0.75" height="0.75"/>
		</g>
	</g>
	<g>
		<g>
			<rect x="33.625" y="49.625" fill="#15B750" width="0.75" height="0.75"/>
		</g>
	</g>
	<g>
		<g>
			<rect x="49.625" y="49.625" fill="#15B750" width="0.75" height="0.75"/>
		</g>
	</g>
	<g>
		<g>
			<rect x="65.625" y="49.625" fill="#15B750" width="0.75" height="0.75"/>
		</g>
	</g>
	<g>
		<g>
			<rect x="17.625" y="65.625" fill="#15B750" width="0.75" height="0.75"/>
		</g>
	</g>
	<g>
		<g>
			<rect x="33.625" y="65.625" fill="#15B750" width="0.75" height="0.75"/>
		</g>
	</g>
	<g>
		<g>
			<rect x="49.625" y="65.625" fill="#15B750" width="0.75" height="0.75"/>
		</g>
	</g>
	<g>
		<g>
			<rect x="65.625" y="65.625" fill="#15B750" width="0.75" height="0.75"/>
		</g>
	</g>
	<g>
		<g>
			<rect x="17.625" y="81.625" fill="#15B750" width="0.75" height="0.75"/>
		</g>
	</g>
	<g>
		<g>
			<rect x="33.625" y="81.625" fill="#15B750" width="0.75" height="0.75"/>
		</g>
	</g>
	<g>
		<g>
			<rect x="49.625" y="81.625" fill="#15B750" width="0.75" height="0.75"/>
		</g>
	</g>
	<g>
		<g>
			<rect x="65.625" y="81.625" fill="#15B750" width="0.75" height="0.75"/>
		</g>
	</g>
	<g>
		<path fill="#15B750" d="M28.812,25.562H26v1.312h1.378c-0.036,0.829-0.143,1.111-0.378,1.372c-0.225,0.259-0.573,0.427-1,0.427
			s-0.787-0.168-1.012-0.427c-0.302-0.336-0.381-0.707-0.381-2.246s0.078-1.91,0.381-2.247c0.225-0.259,0.585-0.427,1.012-0.427
			s0.775,0.168,1,0.427c0.153,0.17,0.252,0.35,0.312,0.685h1.461c-0.066-0.715-0.243-1.201-0.718-1.674
			c-0.541-0.539-1.253-0.831-2.055-0.831s-1.514,0.292-2.056,0.831c-0.756,0.753-0.756,1.539-0.756,3.236s0,2.483,0.757,3.236
			c0.542,0.539,1.254,0.831,2.056,0.831c0.802,0,1.514-0.292,2.056-0.831c0.757-0.753,0.757-1.54,0.757-3.236
			C28.812,25.847,28.812,25.701,28.812,25.562z"/>
	</g>
	<g>
		<path fill="#15B750" d="M28.812,41.562H26v1.312h1.378c-0.036,0.829-0.143,1.111-0.378,1.372c-0.225,0.259-0.573,0.427-1,0.427
			s-0.787-0.168-1.012-0.427c-0.302-0.336-0.381-0.707-0.381-2.246s0.078-1.91,0.381-2.247c0.225-0.259,0.585-0.427,1.012-0.427
			s0.775,0.168,1,0.427c0.153,0.17,0.252,0.35,0.312,0.685h1.461c-0.066-0.715-0.243-1.201-0.718-1.674
			c-0.542-0.539-1.254-0.831-2.056-0.831c-0.802,0-1.514,0.292-2.056,0.831c-0.755,0.753-0.755,1.539-0.755,3.236
			s0,2.483,0.757,3.236c0.542,0.539,1.254,0.831,2.056,0.831c0.802,0,1.514-0.292,2.056-0.831c0.757-0.753,0.757-1.54,0.757-3.236
			C28.812,41.847,28.812,41.701,28.812,41.562z"/>
	</g>
	<g>
		<path fill="#15B750" d="M39.188,30v-8h5.625v1.394H40.75v1.876h3.501v1.394H40.75v1.943h4.062V30H39.188z"/>
	</g>
	<g>
		<path fill="#15B750" d="M60.057,22.764c-0.543-0.539-1.254-0.831-2.057-0.831s-1.514,0.292-2.057,0.831
			c-0.756,0.753-0.756,1.54-0.756,3.236s0,2.483,0.756,3.236c0.543,0.539,1.254,0.831,2.057,0.831s1.514-0.292,2.057-0.831
			c0.756-0.753,0.756-1.54,0.756-3.236S60.812,23.517,60.057,22.764z M59,28.247c-0.225,0.259-0.572,0.427-1,0.427
			s-0.787-0.168-1.012-0.427c-0.303-0.337-0.381-0.708-0.381-2.247s0.078-1.91,0.381-2.247c0.225-0.259,0.584-0.427,1.012-0.427
			s0.775,0.168,1,0.427c0.305,0.337,0.395,0.708,0.395,2.247S59.305,27.91,59,28.247z"/>
	</g>
	<g>
		<path fill="#15B750" d="M45.325,46l-1.7-3.282c0.873-0.415,1.367-1.263,1.367-2.224c0-1.359-0.989-2.494-2.641-2.494h-3.164v8
			h1.562v-3.011h1.293L43.516,46H45.325z M40.749,39.394h1.523c0.708,0,1.158,0.449,1.158,1.101c0,0.652-0.449,1.09-1.158,1.09
			h-1.523V39.394z"/>
	</g>
	<g>
		<path fill="#15B750" d="M59.783,46l-0.443-1.416h-2.669L56.217,46h-1.529l2.732-8h1.148l2.744,8H59.783z M58.031,40.359
			l-0.949,2.91h1.867L58.031,40.359z"/>
	</g>
	<g>
		<path fill="#15B750" d="M43.251,62v-3.35h-2.502V62h-1.562v-8h1.562v3.27h2.502V54h1.562v8H43.251z"/>
	</g>
	<g>
		<path fill="#15B750" d="M26.352,58.988h-1.603V62h-1.561v-8h3.164c1.651,0,2.641,1.135,2.641,2.494S28.003,58.988,26.352,58.988z
			 M26.272,55.395h-1.523v2.189h1.523c0.708,0,1.157-0.438,1.157-1.09C27.43,55.843,26.98,55.395,26.272,55.395z"/>
	</g>
	<g>
		<polygon fill="#15B750" points="58.781,60.605 58.781,55.395 60.281,55.395 60.281,54 55.719,54 55.719,55.395 57.219,55.395 
			57.219,60.605 55.562,60.605 55.562,62 60.438,62 60.438,60.605 		"/>
	</g>
	<g>
		<path fill="#15B750" d="M27.314,75.551c-0.061,0.344-0.159,0.523-0.314,0.696c-0.225,0.259-0.573,0.427-1,0.427
			s-0.787-0.168-1.012-0.427c-0.302-0.337-0.382-0.708-0.382-2.247s0.079-1.91,0.382-2.247c0.225-0.259,0.585-0.427,1.012-0.427
			s0.775,0.168,1,0.427c0.153,0.171,0.252,0.351,0.312,0.685h1.461c-0.066-0.715-0.243-1.201-0.718-1.674
			c-0.542-0.539-1.254-0.83-2.056-0.83c-0.802,0-1.514,0.291-2.056,0.83c-0.755,0.754-0.755,1.539-0.755,3.236s0,2.482,0.757,3.236
			c0.542,0.539,1.254,0.83,2.056,0.83c0.802,0,1.514-0.291,2.056-0.83c0.478-0.477,0.653-0.965,0.719-1.688L27.314,75.551
			L27.314,75.551z"/>
	</g>
	<g>
		<rect x="57.219" y="73.219" fill="#15B750" width="1.562" height="1.562"/>
	</g>
	<g>
		<path fill="#15B750" d="M43.783,78l-0.443-1.416h-2.669L40.217,78h-1.529l2.732-8h1.148l2.744,8H43.783z M42.031,72.359
			l-0.949,2.91h1.867L42.031,72.359z"/>
	</g>
</g>
</svg>
